<?xml version="1.0" encoding="UTF-8"?>
<!-- Generator: visioncortex VTracer 0.6.3 -->
<svg version="1.1" xmlns="http://www.w3.org/2000/svg" width="702" height="702">
<path d="M0 0 C14.56 11.94 21.27 27.51 23.7 45.77 C24.13 51.83 24 57.92 24 64 C67.89 64 111.78 64 157 64 C157 56.41 157 48.82 157 41 C159.31 23.12 165.6 10.15 179.7 -1.17 C192.66 -10.04 207.41 -12.09 222.65 -9.34 C237.42 -5.28 249.53 4.47 257.38 17.56 C264.2 29.67 266.05 44.07 266.02 57.77 C266.01 58.93 266.01 60.1 266.01 61.31 C266.01 62.19 266 63.08 266 64 C266.59 63.99 267.18 63.99 267.78 63.98 C274 63.91 280.21 63.87 286.43 63.84 C288.74 63.82 291.05 63.8 293.36 63.77 C315.22 63.53 337.6 63.8 355 79 C356.18 79.97 356.18 79.97 357.39 80.96 C371.01 92.54 382.38 109.46 384.28 127.66 C384.38 130.39 384.4 133.11 384.38 135.84 C384.38 136.87 384.39 137.91 384.39 138.97 C384.4 142.41 384.39 145.84 384.38 149.27 C384.39 151.75 384.39 154.22 384.4 156.7 C384.41 162.02 384.42 167.34 384.41 172.66 C384.4 180.38 384.42 188.1 384.43 195.83 C384.46 208.4 384.48 220.98 384.49 233.56 C384.49 234.31 384.49 235.06 384.49 235.83 C384.49 241.16 384.5 246.49 384.5 251.81 C384.5 257.86 384.51 263.91 384.51 269.97 C384.51 271.08 384.51 271.08 384.51 272.22 C384.52 284.73 384.54 297.24 384.57 309.75 C384.59 316.75 384.6 323.75 384.59 330.75 C384.38 370.98 384.38 370.98 388 411 C388.23 412.76 388.47 414.53 388.7 416.29 C389.26 420.46 389.92 424.61 390.62 428.75 C390.75 429.48 390.87 430.21 391 430.97 C395.61 458.05 403.35 484.3 413 510 C413.38 511.01 413.75 512.01 414.14 513.05 C419.73 527.7 426.68 541.56 434.11 555.34 C444.08 574.01 447.67 591.24 442 612 C438.21 624.24 430.77 633.86 422 643 C421.41 643.64 420.83 644.28 420.22 644.93 C407.09 658.81 388.89 665.85 370.01 666.38 C364.45 666.47 358.88 666.5 353.32 666.51 C350.72 666.53 348.12 666.55 345.53 666.57 C339.04 666.61 332.55 666.64 326.06 666.66 C320.63 666.68 315.2 666.71 309.77 666.74 C262.64 667 215.52 667.02 168.4 667.02 C166.29 667.02 164.19 667.02 162.08 667.02 C133.22 667.02 104.36 667.01 75.5 666.98 C61.5 666.96 47.49 666.95 33.49 666.94 C31.56 666.94 31.56 666.94 29.6 666.94 C-12.35 666.91 -54.29 667.18 -96.24 667.85 C-107.43 668.03 -118.63 668.16 -129.83 668.28 C-131.66 668.3 -133.5 668.32 -135.33 668.35 C-136.63 668.37 -136.63 668.37 -137.96 668.38 C-138.72 668.39 -139.48 668.4 -140.27 668.41 C-159.76 668.51 -177.89 661.65 -192 648 C-209.88 628.68 -215.51 605.98 -215.37 580.31 C-215.37 578.69 -215.37 577.07 -215.38 575.45 C-215.39 571.05 -215.38 566.65 -215.36 562.24 C-215.35 557.47 -215.36 552.7 -215.36 547.94 C-215.37 538.6 -215.36 529.27 -215.34 519.93 C-215.32 509.01 -215.32 498.09 -215.32 487.17 C-215.32 467.63 -215.31 448.09 -215.28 428.55 C-215.26 409.7 -215.24 390.86 -215.24 372.01 C-215.24 370.28 -215.24 370.28 -215.24 368.51 C-215.24 366.18 -215.24 363.85 -215.24 361.52 C-215.24 360.37 -215.24 359.22 -215.24 358.04 C-215.24 356.89 -215.24 355.74 -215.24 354.56 C-215.23 336.47 -215.22 318.38 -215.21 300.29 C-215.21 293.79 -215.2 287.3 -215.2 280.8 C-215.16 200.47 -215.16 200.47 -214.61 168.91 C-214.6 167.92 -214.58 166.93 -214.57 165.91 C-214.42 156.63 -214.08 147.42 -213.1 138.19 C-213.03 137.48 -212.95 136.77 -212.88 136.03 C-210.27 113.94 -197.24 96.33 -181 82 C-177.49 79.3 -173.91 77.08 -170 75 C-168.51 74.2 -168.51 74.2 -166.99 73.39 C-147.53 63.72 -127.5 63.85 -106.25 63.94 C-104.18 63.94 -102.12 63.95 -100.05 63.95 C-95.04 63.96 -90.02 63.98 -85 64 C-85.02 63.25 -85.04 62.5 -85.06 61.73 C-85.74 33.96 -85.74 33.96 -81 24 C-80.58 23.06 -80.15 22.12 -79.71 21.14 C-72.76 7.09 -61.61 -2.73 -47.02 -8.05 C-30.85 -13.12 -13.81 -9.52 0 0 Z M-51 29 C-58.13 39.74 -57 51.22 -57 64 C-39.51 64 -22.02 64 -4 64 C-5.23 42.29 -5.23 42.29 -16.44 24.56 C-28.34 17.3 -41.47 18.26 -51 29 Z M192.12 27.75 C183.56 40.86 186 46.14 186 64 C202.83 64 219.66 64 237 64 C237.02 43.57 237.02 43.57 227.3 26.19 C221.38 20.83 216.07 19.47 208.14 19.62 C201.63 20.41 196.81 23.27 192.12 27.75 Z " fill="#FBF9F5" transform="translate(223,34)"/>
<path d="M0 0 C14.56 11.94 21.27 27.51 23.7 45.77 C24.13 51.83 24 57.92 24 64 C67.89 64 111.78 64 157 64 C157 56.41 157 48.82 157 41 C159.31 23.12 165.6 10.15 179.7 -1.17 C192.66 -10.04 207.41 -12.09 222.65 -9.34 C237.42 -5.28 249.53 4.47 257.38 17.56 C264.2 29.67 266.05 44.07 266.02 57.77 C266.01 58.93 266.01 60.1 266.01 61.31 C266.01 62.19 266 63.08 266 64 C266.59 63.99 267.18 63.99 267.78 63.98 C274 63.91 280.21 63.87 286.43 63.84 C288.74 63.82 291.05 63.8 293.36 63.77 C315.22 63.53 337.6 63.8 355 79 C356.18 79.97 356.18 79.97 357.39 80.96 C371.01 92.54 382.38 109.46 384.28 127.66 C384.38 130.39 384.4 133.11 384.38 135.84 C384.38 136.87 384.39 137.91 384.39 138.97 C384.4 142.41 384.39 145.84 384.38 149.27 C384.39 151.75 384.39 154.22 384.4 156.7 C384.41 162.02 384.42 167.34 384.41 172.66 C384.4 180.38 384.42 188.1 384.43 195.83 C384.46 208.4 384.48 220.98 384.49 233.56 C384.49 234.31 384.49 235.06 384.49 235.83 C384.49 241.16 384.5 246.49 384.5 251.81 C384.5 257.86 384.51 263.91 384.51 269.97 C384.51 271.08 384.51 271.08 384.51 272.22 C384.52 284.73 384.54 297.24 384.57 309.75 C384.59 316.75 384.6 323.75 384.59 330.75 C384.38 370.98 384.38 370.98 388 411 C388.23 412.76 388.47 414.53 388.7 416.29 C389.26 420.46 389.92 424.61 390.62 428.75 C390.75 429.48 390.87 430.21 391 430.97 C395.61 458.05 403.35 484.3 413 510 C413.38 511.01 413.75 512.01 414.14 513.05 C419.73 527.7 426.68 541.56 434.11 555.34 C444.08 574.01 447.67 591.24 442 612 C438.21 624.24 430.77 633.86 422 643 C421.41 643.64 420.83 644.28 420.22 644.93 C407.09 658.81 388.89 665.85 370.01 666.38 C364.45 666.47 358.88 666.5 353.32 666.51 C350.72 666.53 348.12 666.55 345.53 666.57 C339.04 666.61 332.55 666.64 326.06 666.66 C320.63 666.68 315.2 666.71 309.77 666.74 C262.64 667 215.52 667.02 168.4 667.02 C166.29 667.02 164.19 667.02 162.08 667.02 C133.22 667.02 104.36 667.01 75.5 666.98 C61.5 666.96 47.49 666.95 33.49 666.94 C31.56 666.94 31.56 666.94 29.6 666.94 C-12.35 666.91 -54.29 667.18 -96.24 667.85 C-107.43 668.03 -118.63 668.16 -129.83 668.28 C-131.66 668.3 -133.5 668.32 -135.33 668.35 C-136.63 668.37 -136.63 668.37 -137.96 668.38 C-138.72 668.39 -139.48 668.4 -140.27 668.41 C-159.76 668.51 -177.89 661.65 -192 648 C-209.88 628.68 -215.51 605.98 -215.37 580.31 C-215.37 578.69 -215.37 577.07 -215.38 575.45 C-215.39 571.05 -215.38 566.65 -215.36 562.24 C-215.35 557.47 -215.36 552.7 -215.36 547.94 C-215.37 538.6 -215.36 529.27 -215.34 519.93 C-215.32 509.01 -215.32 498.09 -215.32 487.17 C-215.32 467.63 -215.31 448.09 -215.28 428.55 C-215.26 409.7 -215.24 390.86 -215.24 372.01 C-215.24 370.28 -215.24 370.28 -215.24 368.51 C-215.24 366.18 -215.24 363.85 -215.24 361.52 C-215.24 360.37 -215.24 359.22 -215.24 358.04 C-215.24 356.89 -215.24 355.74 -215.24 354.56 C-215.23 336.47 -215.22 318.38 -215.21 300.29 C-215.21 293.79 -215.2 287.3 -215.2 280.8 C-215.16 200.47 -215.16 200.47 -214.61 168.91 C-214.6 167.92 -214.58 166.93 -214.57 165.91 C-214.42 156.63 -214.08 147.42 -213.1 138.19 C-213.03 137.48 -212.95 136.77 -212.88 136.03 C-210.27 113.94 -197.24 96.33 -181 82 C-177.49 79.3 -173.91 77.08 -170 75 C-168.51 74.2 -168.51 74.2 -166.99 73.39 C-147.53 63.72 -127.5 63.85 -106.25 63.94 C-104.18 63.94 -102.12 63.95 -100.05 63.95 C-95.04 63.96 -90.02 63.98 -85 64 C-85.02 63.25 -85.04 62.5 -85.06 61.73 C-85.74 33.96 -85.74 33.96 -81 24 C-80.58 23.06 -80.15 22.12 -79.71 21.14 C-72.76 7.09 -61.61 -2.73 -47.02 -8.05 C-30.85 -13.12 -13.81 -9.52 0 0 Z M-51 29 C-58.13 39.74 -57 51.22 -57 64 C-39.51 64 -22.02 64 -4 64 C-5.23 42.29 -5.23 42.29 -16.44 24.56 C-28.34 17.3 -41.47 18.26 -51 29 Z M192.12 27.75 C183.56 40.86 186 46.14 186 64 C202.83 64 219.66 64 237 64 C237.02 43.57 237.02 43.57 227.3 26.19 C221.38 20.83 216.07 19.47 208.14 19.62 C201.63 20.41 196.81 23.27 192.12 27.75 Z M-148 218 C-148.09 264.37 -148.16 310.74 -148.2 357.11 C-148.21 362.59 -148.21 368.07 -148.22 373.55 C-148.22 374.64 -148.22 375.73 -148.22 376.85 C-148.24 394.5 -148.27 412.14 -148.31 429.78 C-148.35 447.9 -148.37 466.01 -148.38 484.12 C-148.38 495.29 -148.4 506.46 -148.43 517.63 C-148.45 525.3 -148.46 532.97 -148.45 540.64 C-148.45 545.05 -148.46 549.47 -148.48 553.89 C-148.5 557.95 -148.5 562 -148.48 566.06 C-148.48 567.52 -148.49 568.97 -148.5 570.43 C-148.61 583.42 -146.4 595.7 -140.31 607.31 C-139.97 607.98 -139.63 608.64 -139.28 609.32 C-132.04 622.83 -120.5 632.26 -106 637 C-97.9 639.27 -90.03 639.28 -81.69 639.25 C-80.13 639.25 -78.58 639.25 -77.02 639.25 C-72.76 639.26 -68.5 639.25 -64.24 639.25 C-59.64 639.24 -55.03 639.25 -50.43 639.25 C-41.39 639.25 -32.36 639.25 -23.32 639.24 C-12.72 639.23 -2.13 639.23 8.47 639.23 C27.48 639.23 46.48 639.22 65.48 639.21 C83.74 639.19 102 639.18 120.26 639.19 C121.37 639.19 122.49 639.19 123.64 639.19 C124.75 639.19 125.86 639.19 127.01 639.19 C147.97 639.19 168.92 639.18 189.88 639.17 C196.16 639.17 202.44 639.17 208.71 639.17 C236.48 639.17 264.24 639.13 292 639 C293.42 638.99 293.42 638.99 294.87 638.99 C307.16 638.93 319.44 638.84 331.73 638.73 C335.23 638.69 338.72 638.67 342.21 638.64 C346.25 638.62 350.3 638.58 354.34 638.53 C355.8 638.51 357.27 638.5 358.73 638.5 C377.06 638.42 392.2 633.91 405.36 620.87 C409.02 616.89 411.72 612.89 414 608 C414.34 607.28 414.67 606.57 415.02 605.83 C419.35 594.97 417.13 584.51 413 574 C411.23 570.17 409.26 566.46 407.25 562.75 C406.17 560.72 405.1 558.68 404.02 556.65 C402.63 554.05 401.24 551.45 399.84 548.86 C378.45 509.24 367.12 462.85 360.88 418.56 C360.72 417.45 360.56 416.33 360.39 415.18 C359.89 411.46 359.44 407.73 359 404 C358.91 403.28 358.83 402.56 358.74 401.81 C356.87 385.54 356.75 369.35 356.83 352.99 C356.85 349.3 356.85 345.6 356.86 341.91 C356.87 334.91 356.89 327.92 356.91 320.92 C356.96 308.45 356.99 295.98 357.01 283.5 C357.02 279.16 357.03 274.81 357.05 270.46 C357.06 268.39 357.07 266.32 357.07 264.25 C357.08 261.77 357.09 259.29 357.1 256.81 C357.12 243.86 356.52 230.93 356 218 C304.74 216.97 253.49 216.85 202.22 216.86 C194.23 216.87 186.23 216.87 178.23 216.87 C177.08 216.87 175.92 216.87 174.73 216.87 C172.39 216.87 170.04 216.87 167.69 216.86 C145.93 216.86 124.16 216.87 102.4 216.87 C83.77 216.88 65.15 216.87 46.53 216.87 C24.74 216.86 2.96 216.86 -18.82 216.87 C-21.14 216.87 -23.47 216.87 -25.79 216.87 C-27.5 216.87 -27.5 216.87 -29.25 216.87 C-37.25 216.87 -45.25 216.87 -53.25 216.86 C-62.98 216.86 -72.71 216.86 -82.44 216.87 C-87.39 216.87 -92.34 216.87 -97.29 216.87 C-101.83 216.86 -106.37 216.87 -110.91 216.87 C-112.54 216.87 -114.17 216.87 -115.8 216.87 C-126.57 216.85 -137.26 217.26 -148 218 Z " fill="#1D4356" transform="translate(223,34)"/>
<path d="M0 0 C9.43 0.01 18.85 0.02 28.28 0.02 C47.58 0.03 66.88 0.05 86.17 0.07 C86.26 2.91 86.32 5.74 86.36 8.57 C86.4 9.76 86.4 9.76 86.44 10.97 C86.52 17.81 85.16 23.03 81.36 28.85 C78.84 31.41 76.34 32.93 73.17 34.63 C66.11 38.41 66.11 38.41 62.17 45.07 C62.06 46.55 62 48.03 61.99 49.51 C61.97 50.27 61.96 51.03 61.94 51.82 C62.2 54.36 62.82 55.91 64.17 58.07 C69.25 61.62 74.21 61.85 80.17 61.07 C91.84 57.99 100.2 51.9 106.69 41.69 C113.61 28.73 114.1 14.42 115.17 0.07 C121.02 0.05 126.87 0.03 132.72 0.02 C134.71 0.01 136.69 0.01 138.67 -0 C177.93 -0.17 177.93 -0.17 190.85 10.73 C202.94 22.89 204.33 37.02 204.31 53.29 C204.31 55.16 204.31 55.16 204.31 57.08 C204.31 60.38 204.31 63.68 204.3 66.99 C204.3 69.69 204.3 72.4 204.31 75.11 C204.31 78.33 204.31 81.56 204.31 84.79 C204.31 86 204.31 87.22 204.31 88.47 C204.31 89.59 204.31 90.7 204.3 91.85 C204.3 93.33 204.3 93.33 204.3 94.84 C204.17 97.07 204.17 97.07 203.17 98.07 C200.51 98.17 197.88 98.21 195.21 98.2 C194.37 98.2 193.52 98.2 192.64 98.2 C189.76 98.21 186.88 98.2 184 98.2 C181.93 98.2 179.86 98.2 177.79 98.2 C172.07 98.21 166.35 98.21 160.63 98.2 C154.48 98.2 148.32 98.2 142.16 98.21 C130.79 98.21 119.41 98.21 108.04 98.21 C97.53 98.21 87.03 98.2 76.52 98.21 C75.83 98.21 75.13 98.21 74.42 98.21 C71.59 98.21 68.77 98.21 65.94 98.21 C39.43 98.21 12.92 98.21 -13.6 98.2 C-37.17 98.2 -60.75 98.2 -84.33 98.2 C-110.79 98.21 -137.25 98.21 -163.72 98.21 C-166.54 98.21 -169.36 98.21 -172.17 98.21 C-172.87 98.21 -173.56 98.21 -174.28 98.21 C-184.78 98.2 -195.28 98.21 -205.78 98.21 C-217.72 98.21 -229.65 98.21 -241.59 98.21 C-247.68 98.2 -253.78 98.2 -259.88 98.2 C-265.45 98.21 -271.02 98.21 -276.59 98.2 C-278.61 98.2 -280.64 98.2 -282.66 98.2 C-285.4 98.21 -288.13 98.2 -290.87 98.2 C-292.07 98.2 -292.07 98.2 -293.3 98.2 C-298.71 98.19 -298.71 98.19 -299.83 97.07 C-299.94 95.12 -299.98 93.16 -300 91.2 C-300.02 89.94 -300.03 88.68 -300.04 87.38 C-300.05 85.99 -300.06 84.6 -300.06 83.21 C-300.07 82.51 -300.07 81.81 -300.08 81.09 C-300.1 77.37 -300.11 73.66 -300.12 69.94 C-300.13 66.13 -300.17 62.32 -300.21 58.51 C-300.23 55.56 -300.24 52.61 -300.24 49.66 C-300.25 48.26 -300.26 46.86 -300.28 45.45 C-300.44 32.77 -298.9 20.58 -289.83 11.07 C-283.75 4.95 -277.17 1.39 -268.4 0.95 C-267.55 0.95 -266.7 0.95 -265.82 0.95 C-264.35 0.95 -264.35 0.95 -262.84 0.95 C-261.77 0.95 -260.71 0.95 -259.61 0.96 C-258.48 0.96 -257.34 0.96 -256.18 0.96 C-252.44 0.96 -248.7 0.97 -244.96 0.97 C-242.37 0.98 -239.77 0.98 -237.18 0.98 C-231.05 0.98 -224.93 0.99 -218.8 1 C-211.82 1.01 -204.85 1.02 -197.87 1.02 C-183.52 1.03 -169.17 1.05 -154.83 1.07 C-154.78 3.28 -154.75 5.49 -154.72 7.7 C-154.7 8.93 -154.68 10.16 -154.66 11.42 C-155.02 19.34 -157.94 26.68 -163.83 32.07 C-166.61 33.68 -169.43 35.16 -172.29 36.63 C-176.45 39 -178.34 41.61 -179.83 46.07 C-180.19 51.06 -180.01 54.12 -176.83 58.07 C-171.35 61.99 -166.34 61.81 -159.83 61.07 C-156.54 60.15 -153.77 58.78 -150.83 57.07 C-150.06 56.66 -149.3 56.25 -148.52 55.82 C-137.27 49.15 -132.34 37.6 -129.11 25.36 C-127.98 19.85 -127.6 14.32 -127.28 8.72 C-127.21 7.61 -127.21 7.61 -127.14 6.48 C-127.04 4.68 -126.93 2.88 -126.83 1.07 C-84.55 -0.08 -42.29 -0.05 0 0 Z " fill="#6C95AF" transform="translate(374.8252602815628,125.92797338962555)"/>
<path d="M0 0 C6.2 0.05 12.2 0.68 18.33 1.54 C19.95 1.76 19.95 1.76 21.6 1.98 C23.87 2.29 26.14 2.6 28.42 2.92 C31.8 3.39 35.19 3.85 38.57 4.31 C49.93 5.86 61.27 7.5 72.59 9.26 C73.65 9.42 74.7 9.58 75.79 9.74 C76.77 9.9 77.74 10.05 78.75 10.21 C79.61 10.34 80.46 10.48 81.34 10.61 C83.7 11.16 85.56 11.98 87.67 13.15 C87.06 19.31 86.14 25.26 84.85 31.31 C84.67 32.16 84.49 33.02 84.3 33.9 C83.72 36.67 83.13 39.44 82.54 42.21 C82.13 44.15 81.72 46.09 81.31 48.03 C78.12 63.12 74.85 78.19 71.52 93.26 C70.61 97.39 69.71 101.53 68.82 105.67 C67.12 113.5 65.41 121.33 63.67 129.15 C63.46 130.06 63.26 130.97 63.05 131.9 C59.5 147.64 54.91 161.1 41.67 171.15 C39.69 172.14 37.71 173.13 35.67 174.15 C35.67 184.05 35.67 193.95 35.67 204.15 C37.96 204.11 40.25 204.08 42.6 204.04 C44.84 204.02 47.09 204 49.33 203.98 C50.87 203.97 52.42 203.95 53.96 203.92 C70.07 203.66 70.07 203.66 76.67 207.15 C79.44 210.09 79.89 212.67 80.1 216.59 C79.93 221.11 78.76 223.74 75.67 227.15 C70.53 230.43 66.27 230.58 60.38 230.55 C59.46 230.56 58.54 230.57 57.6 230.57 C54.58 230.59 51.56 230.59 48.55 230.58 C46.44 230.59 44.34 230.59 42.23 230.6 C37.82 230.61 33.42 230.61 29.01 230.6 C23.37 230.58 17.73 230.6 12.09 230.63 C7.74 230.65 3.4 230.65 -0.95 230.65 C-3.02 230.65 -5.1 230.65 -7.18 230.66 C-10.09 230.68 -13 230.67 -15.91 230.65 C-16.77 230.66 -17.62 230.67 -18.5 230.68 C-24.26 230.61 -27.6 229.47 -32.33 226.15 C-35.82 222.02 -37.33 218.58 -37.33 213.15 C-35.1 208.68 -32.83 206.26 -28.33 204.15 C-25.47 203.9 -22.83 203.8 -19.97 203.86 C-19.18 203.86 -18.39 203.86 -17.57 203.87 C-15.05 203.89 -12.54 203.92 -10.02 203.96 C-8.31 203.98 -6.6 203.99 -4.89 204 C-0.7 204.04 3.48 204.09 7.67 204.15 C7.34 203.49 7.01 202.83 6.67 202.15 C6.61 199.89 6.61 197.64 6.63 195.38 C6.63 194 6.62 192.63 6.61 191.25 C6.6 189.08 6.6 186.91 6.64 184.74 C7.08 176.36 7.08 176.36 3.94 168.96 C1.88 167.37 1.88 167.37 -0.3 166.27 C-6.95 162.6 -10.22 154.06 -12.33 147.15 C-16.27 129.3 -12.98 108.98 -11.69 90.9 C-10.78 78.18 -9.99 65.45 -9.28 52.71 C-9.23 51.91 -9.19 51.12 -9.14 50.3 C-8.7 42.26 -8.25 34.23 -7.82 26.19 C-7.65 23.17 -7.49 20.15 -7.32 17.12 C-7.24 15.7 -7.16 14.27 -7.09 12.85 C-6.99 10.89 -6.88 8.93 -6.77 6.97 C-6.71 5.87 -6.65 4.76 -6.59 3.62 C-6.13 -0.85 -4.04 0 0 0 Z " fill="#1D4457" transform="translate(436.333251953125,406.8505859375)"/>
<path d="M0 0 C0.6 0.26 1.2 0.53 1.82 0.8 C17.76 7.96 31.1 19.97 38 36.25 C42.69 49.2 42.21 63.52 42.24 77.11 C42.25 79.76 42.28 82.41 42.31 85.06 C42.32 86.76 42.32 88.47 42.33 90.17 C42.34 90.95 42.35 91.74 42.37 92.54 C42.34 98.43 41.28 103.16 37.5 107.88 C34.55 110.09 31.74 110.13 28.2 110.15 C27.21 110.15 26.22 110.16 25.2 110.17 C24.12 110.17 23.04 110.17 21.92 110.18 C20.21 110.19 20.21 110.19 18.46 110.2 C14.68 110.22 10.89 110.23 7.11 110.24 C5.17 110.24 5.17 110.24 3.19 110.25 C-2.94 110.27 -9.07 110.28 -15.2 110.29 C-22.27 110.3 -29.34 110.33 -36.41 110.37 C-42.53 110.4 -48.66 110.41 -54.79 110.42 C-57.39 110.42 -60 110.43 -62.6 110.45 C-66.25 110.48 -69.89 110.48 -73.53 110.47 C-75.15 110.49 -75.15 110.49 -76.8 110.51 C-82.67 110.47 -86.49 110.17 -91 106 C-93.66 102.52 -94.38 100.02 -94.4 95.68 C-94.42 94.64 -94.43 93.6 -94.44 92.53 C-94.44 91.42 -94.44 90.3 -94.43 89.16 C-94.44 88 -94.44 86.83 -94.45 85.64 C-94.46 83.18 -94.45 80.72 -94.45 78.27 C-94.44 74.54 -94.47 70.82 -94.5 67.09 C-94.5 64.7 -94.5 62.3 -94.5 59.91 C-94.51 58.81 -94.52 57.71 -94.53 56.58 C-94.39 40.4 -87.98 26.29 -76.9 14.64 C-68.55 7.03 -58.65 1.68 -48 -2 C-47 -2.36 -46 -2.73 -44.97 -3.11 C-31.51 -6.83 -12.75 -5.64 0 0 Z " fill="#1C4457" transform="translate(215,445)"/>
<path d="M0 0 C0.8 -0.01 1.59 -0.01 2.41 -0.02 C4.09 -0.03 5.77 -0.03 7.45 -0.03 C9.97 -0.04 12.48 -0.08 15 -0.11 C36.64 -0.27 54.63 6.36 70.58 21.35 C83.79 34.99 86.55 52.15 86.64 70.38 C86.64 71.3 86.65 72.23 86.65 73.18 C86.66 75.12 86.67 77.06 86.67 79 C86.68 81.96 86.71 84.92 86.75 87.88 C86.75 89.77 86.76 91.67 86.76 93.56 C86.77 94.44 86.79 95.31 86.8 96.22 C86.78 102.71 86.03 107.61 81.37 112.5 C77.37 115 74.28 114.9 69.65 114.85 C68.78 114.86 67.9 114.87 67 114.87 C64.12 114.89 61.24 114.88 58.36 114.87 C56.36 114.87 54.36 114.87 52.35 114.88 C48.16 114.88 43.96 114.88 39.77 114.86 C34.39 114.83 29.01 114.85 23.62 114.87 C19.49 114.89 15.35 114.88 11.22 114.87 C9.24 114.87 7.25 114.87 5.27 114.88 C2.5 114.89 -0.27 114.88 -3.04 114.85 C-4.28 114.87 -4.28 114.87 -5.54 114.88 C-11.04 114.8 -11.04 114.8 -13.54 112.62 C-15.33 108.64 -15.69 104.83 -15.83 100.51 C-15.87 99.58 -15.9 98.64 -15.93 97.68 C-15.97 96.68 -16 95.69 -16.03 94.66 C-16.11 92.51 -16.19 90.36 -16.27 88.21 C-16.39 84.85 -16.5 81.49 -16.62 78.13 C-16.56 45.86 -16.56 45.86 -31.44 18.65 C-33.57 16.34 -33.57 16.34 -33.69 13.77 C-30.7 7.29 -22.88 4.74 -16.57 2.34 C-10.92 0.71 -5.86 0.02 0 0 Z " fill="#1D4458" transform="translate(290.56640625,440.6640625)"/>
<path d="M0 0 C8.85 6.56 14.85 14.41 20 24 C20.55 25.01 21.1 26.02 21.67 27.06 C28.08 41.44 27.19 61.69 22.41 76.49 C14.93 95.07 14.93 95.07 11 99 C1.95 99.12 -7.23 97.54 -16.18 96.26 C-17.38 96.09 -18.59 95.92 -19.84 95.75 C-23.66 95.21 -27.49 94.67 -31.31 94.12 C-36.33 93.42 -41.35 92.71 -46.36 92.01 C-47.59 91.84 -48.81 91.66 -50.07 91.49 C-59.4 90.19 -68.73 89.04 -78.09 88.03 C-87.81 86.94 -87.81 86.94 -92 85 C-96.43 76.9 -96.25 68.65 -96.3 59.67 C-96.31 58.24 -96.33 56.81 -96.36 55.38 C-96.73 37.35 -91.73 22.45 -79.24 9.21 C-57.73 -12.81 -25.96 -16.9 0 0 Z " fill="#1D4458" transform="translate(519,307)"/>
<path d="M0 0 C10.63 8.35 16.25 16.67 19 30 C20.42 42.37 18.12 53.88 10.62 64 C9.45 65.36 8.24 66.7 7 68 C6.48 68.55 5.96 69.1 5.42 69.67 C-3.61 78.21 -15.79 82.52 -28.07 82.25 C-39.78 81.25 -50.96 76.78 -59 68 C-68.59 55.33 -71.95 42.71 -70 27 C-68.87 22.61 -67.26 18.92 -65 15 C-64.53 14.17 -64.06 13.34 -63.58 12.48 C-57.25 2.2 -47.5 -4 -35.94 -7.38 C-23.26 -9.39 -10.63 -7.52 0 0 Z " fill="#1C4357" transform="translate(329,342)"/>
<path d="M0 0 C1.42 1.05 2.82 2.13 4.19 3.25 C5.22 4.08 5.22 4.08 6.27 4.92 C13.48 11.37 19.77 22.08 20.43 31.8 C20.77 45.13 18.8 56.6 10.19 67.25 C9.71 67.86 9.23 68.48 8.74 69.11 C2.85 75.82 -7.83 81.64 -16.84 82.43 C-33.02 82.89 -44.37 80.65 -56.78 69.48 C-66.09 59.8 -69.16 47.91 -69.02 34.88 C-68.29 22.18 -62.49 11.99 -53.38 3.29 C-37.88 -9.06 -16.87 -10.58 0 0 Z " fill="#1C4357" transform="translate(211.8125,340.75)"/>
<path d="M0 0 C4.29 3.35 5.47 7.36 7.19 12.31 C12.36 26.3 19.14 40.48 33.25 47.25 C38.05 49.17 43.02 50.57 47.98 51.97 C55.22 54.44 55.22 54.44 57 58 C57.35 61.72 57.49 64.15 55.61 67.43 C51.9 71.09 47.67 72.74 42.94 74.81 C24.08 83.47 13.77 93.93 5.36 112.91 C4.97 113.8 4.57 114.69 4.16 115.6 C3.82 116.4 3.47 117.2 3.12 118.02 C2 120 2 120 -1 122 C-3.44 122.38 -3.44 122.38 -6 122 C-10.31 118.71 -11.38 114.72 -12.94 109.75 C-18.5 93.2 -28.93 83.44 -44 75 C-46.16 73.94 -48.32 72.89 -50.5 71.88 C-55.48 69.47 -59.33 66.97 -62 62 C-62.62 58.81 -62.62 58.81 -62 56 C-58.8 51.79 -54.98 50.89 -50.06 49.69 C-39.45 46.81 -27.96 42.9 -22 33 C-18.01 25.81 -15.56 18.02 -13.14 10.19 C-10.82 2.86 -10.82 2.86 -8 0 C-4.62 -1.13 -3.35 -1.06 0 0 Z " fill="#FFD84E" transform="translate(636,1)"/>
<path d="M0 0 C2.88 0.1 4.97 0.37 7.69 1.12 C7.82 31.73 7.95 62.33 8.07 92.94 C8.08 96.63 8.1 100.32 8.11 104.02 C8.12 104.75 8.12 105.49 8.12 106.24 C8.17 117.82 8.22 129.39 8.27 140.97 C8.32 152.95 8.37 164.93 8.42 176.92 C8.45 183.97 8.47 191.02 8.51 198.07 C8.54 206.53 8.58 214.99 8.61 223.45 C8.61 224.49 8.61 224.49 8.62 225.56 C8.69 245.38 8.68 265.2 8.6 285.02 C8.58 289.9 8.57 294.78 8.55 299.66 C8.55 301.02 8.54 302.38 8.54 303.75 C8.53 305.77 8.53 307.79 8.52 309.81 C8.49 318.2 8.45 326.59 8.39 334.98 C8.35 339.71 8.34 344.45 8.33 349.19 C8.32 351.36 8.3 353.53 8.28 355.7 C8.12 371.06 8.96 385.6 16.44 399.44 C16.95 400.42 16.95 400.42 17.47 401.42 C20.65 407.4 24.5 412.81 28.69 418.12 C29.69 419.46 30.69 420.79 31.69 422.12 C22.11 421.39 13.98 415 7.69 408.12 C-2.58 394.71 -4.93 380.47 -4.8 363.94 C-4.8 362.36 -4.81 360.79 -4.81 359.21 C-4.82 354.93 -4.81 350.64 -4.79 346.36 C-4.78 341.72 -4.78 337.08 -4.79 332.44 C-4.8 323.38 -4.78 314.32 -4.76 305.25 C-4.73 294.7 -4.73 284.14 -4.73 273.59 C-4.73 254.77 -4.7 235.94 -4.67 217.12 C-4.64 198.85 -4.62 180.58 -4.61 162.3 C-4.61 161.18 -4.61 160.05 -4.61 158.89 C-4.6 154.35 -4.6 149.82 -4.6 145.29 C-4.59 127.88 -4.58 110.46 -4.56 93.05 C-4.55 87.79 -4.55 82.53 -4.55 77.26 C-4.54 66.2 -4.52 55.15 -4.5 44.09 C-4.5 39.51 -4.49 34.94 -4.49 30.37 C-4.48 26.19 -4.48 22.01 -4.46 17.83 C-4.46 16.31 -4.46 14.79 -4.46 13.28 C-4.46 11.23 -4.45 9.18 -4.45 7.13 C-4.44 5.98 -4.44 4.84 -4.44 3.66 C-4.25 -0.18 -3.95 0.15 0 0 Z " fill="#F5F1EA" transform="translate(40.3125,250.875)"/>
<path d="M0 0 C3.18 2.57 4.71 4.12 6 8 C5.94 18.43 5.34 31.05 -2 39 C-5.47 40.73 -9.21 40.47 -13 40 C-17.1 37.64 -18.6 35.44 -20 31 C-20.24 22.42 -19.5 10.51 -14.8 3.11 C-10.54 -1.36 -5.71 -1.65 0 0 Z " fill="#EBEEEE" transform="translate(475,467)"/>
<path d="M0 0 C1.05 3.32 0.95 5.94 0.57 9.38 C-0.08 16.22 -0.13 22.99 -0.1 29.86 C-0.1 31.13 -0.09 32.4 -0.09 33.71 C-0.09 37.04 -0.08 40.38 -0.07 43.71 C-0.06 47.13 -0.05 50.55 -0.05 53.97 C-0.04 60.65 -0.02 67.32 0 74 C-1.65 74.03 -3.29 74.05 -4.94 74.06 C-5.85 74.07 -6.77 74.09 -7.71 74.1 C-10 74 -10 74 -11 73 C-11.11 70.54 -11.16 68.12 -11.17 65.66 C-11.17 64.91 -11.18 64.16 -11.18 63.39 C-11.19 60.95 -11.19 58.5 -11.19 56.06 C-11.19 55.24 -11.19 54.41 -11.18 53.56 C-11.09 14.37 -11.09 14.37 0 0 Z " fill="#6F95AC" transform="translate(48,149)"/>
</svg>
